<svg version="1.1" id="Layer_1" xmlns="http://www.w3.org/2000/svg" xmlns:xlink="http://www.w3.org/1999/xlink" x="0px" y="0px"
	 width="100%" viewBox="0 0 1024 896" enable-background="new 0 0 1024 896" xml:space="preserve">
<path fill="#000000" opacity="1.000000" stroke="none" 
	d="
M634.950928,306.049408 
	C643.170471,314.802185 652.220642,322.283539 659.370911,331.554688 
	C687.284851,367.748779 684.519775,418.757538 652.451233,451.257233 
	C619.215942,484.939331 585.547546,518.193848 552.210999,551.776794 
	C548.767822,555.245483 546.749084,554.756165 543.842529,551.399536 
	C530.217834,535.665161 522.240845,517.577209 520.675659,496.778137 
	C518.465881,467.412994 528.514587,442.837280 549.052551,421.895416 
	C564.436523,406.208954 580.674377,391.275879 594.767761,374.406006 
	C615.011658,350.173828 620.632568,322.121948 614.172180,291.444061 
	C613.863708,289.979370 613.455383,288.535614 613.150146,287.070343 
	C613.093079,286.796570 613.306152,286.466522 613.727539,285.017120 
	C620.980225,292.204407 627.839966,299.002380 634.950928,306.049408 
z"/>
<path fill="#000000" opacity="1.000000" stroke="none" 
	d="
M350.935669,374.405853 
	C354.556610,352.020660 364.681213,333.873901 380.693817,318.294281 
	C412.800079,287.056122 444.243195,255.136475 475.967743,223.505859 
	C480.507141,218.979904 481.305298,218.839172 485.414520,223.699112 
	C502.840088,244.308441 510.924469,267.806854 507.019684,294.927979 
	C506.684937,297.253174 505.790039,298.000671 503.262939,298.438599 
	C489.223938,300.871338 476.084412,305.125000 468.299683,318.560272 
	C467.724396,319.553131 466.988739,320.588104 466.066254,321.224670 
	C450.321198,332.089539 442.614716,349.994171 429.379395,363.036072 
	C421.730133,370.573547 428.118134,389.260712 439.929260,392.141815 
	C414.959778,420.042877 406.048309,451.934082 415.833160,488.157318 
	C413.243439,488.734406 412.403076,487.268951 411.399872,486.267029 
	C399.733490,474.615479 387.943268,463.082611 376.488159,451.226196 
	C359.709930,433.860260 350.793854,413.021057 350.171661,388.811005 
	C350.052338,384.167542 350.623749,379.506378 350.935669,374.405853 
z"/>
<path fill="#000000" opacity="1.000000" stroke="none" 
	d="
M426.252960,432.479187 
	C430.879242,419.081360 438.420044,408.076843 448.367096,398.613068 
	C450.460266,396.621613 452.196747,395.530792 454.620575,398.080811 
	C466.079803,410.136383 478.915894,420.859558 489.058624,434.194031 
	C513.899292,466.851776 511.217651,518.680664 483.272125,547.649902 
	C480.233398,550.799988 478.288483,551.072388 475.217010,547.939697 
	C463.790192,536.285095 451.570648,525.345276 440.811340,513.114319 
	C427.081604,497.506622 421.281799,478.613129 421.752899,457.794800 
	C421.946625,449.236145 423.447235,440.950623 426.252960,432.479187 
z"/>
<path fill="#000000" opacity="1.000000" stroke="none" 
	d="
M579.851318,253.156601 
	C598.466003,272.099426 607.005432,294.682709 606.296387,320.726807 
	C605.687256,343.098724 597.334961,362.426270 582.399231,379.013184 
	C580.359985,381.277771 578.731995,381.286804 576.630005,379.157074 
	C564.932800,367.305420 552.740601,355.907959 541.559631,343.590851 
	C530.182068,331.057190 524.351379,315.748444 522.632812,298.867523 
	C519.855103,271.582977 528.672668,248.599030 547.859619,229.256714 
	C550.892578,226.199188 552.930176,225.970535 555.998657,229.178146 
	C563.708862,237.237961 571.717224,245.012604 579.851318,253.156601 
z"/>
<path fill="#000000" opacity="1.000000" stroke="none" 
	d="
M605.217651,592.711182 
	C617.446655,592.877747 616.203552,591.175293 616.274963,603.465027 
	C616.300171,607.794739 616.396729,612.128418 616.252747,616.453369 
	C616.148926,619.572021 617.244446,621.084656 620.536316,621.028015 
	C626.862610,620.919189 633.193237,620.924927 639.519775,621.028198 
	C642.759827,621.080994 643.948730,619.630737 643.896851,616.493835 
	C643.794800,610.334045 643.992432,604.168823 643.863708,598.010071 
	C643.786072,594.294373 645.015137,592.260681 649.050110,592.698975 
	C650.202393,592.824158 651.379517,592.723328 652.545227,592.723328 
	C661.079346,592.723389 660.963928,592.902771 660.879578,601.285828 
	C660.702148,618.926208 660.863953,636.570007 660.883911,654.212402 
	C660.888977,658.679321 660.884644,663.146240 660.884644,667.682495 
	C655.632019,668.850891 651.158630,668.342957 646.738586,668.214417 
	C643.594421,668.122986 643.951050,665.388733 643.928406,663.304443 
	C643.847046,655.811218 643.727966,648.313049 643.923218,640.824524 
	C644.026855,636.847473 642.843262,635.062378 638.553528,635.283386 
	C632.740601,635.582764 626.893372,635.516113 621.073914,635.281616 
	C617.279480,635.128662 616.149597,636.692200 616.229248,640.282959 
	C616.402954,648.106018 616.168091,655.937927 616.319946,663.761902 
	C616.387207,667.225281 615.062622,668.482849 611.626892,668.401001 
	C597.608093,668.066895 599.146057,670.398682 599.140076,656.462036 
	C599.131470,636.650085 599.451416,616.837341 599.346191,597.026489 
	C599.322632,592.594055 601.739197,592.621704 605.217651,592.711182 
z"/>
<path fill="#000000" opacity="1.000000" stroke="none" 
	d="
M133.017639,653.908936 
	C141.177994,653.907532 148.843079,654.003418 156.503830,653.863403 
	C160.136581,653.796936 161.497482,655.156799 161.410553,658.867493 
	C161.156921,669.694336 162.397064,668.284485 152.171280,668.335205 
	C138.011139,668.405457 123.847122,668.179932 109.691711,668.447693 
	C104.955200,668.537354 103.722878,666.769836 103.756676,662.341675 
	C103.918152,641.185486 103.948364,620.026245 103.742371,598.870850 
	C103.695518,594.059265 105.256401,592.542969 110.049774,592.628418 
	C124.705368,592.889832 139.371170,592.873901 154.027390,592.629333 
	C158.611618,592.552795 160.553665,594.061279 160.087708,598.621033 
	C159.952789,599.941223 159.983200,601.287231 160.043228,602.616577 
	C160.194519,605.967224 158.774918,607.369751 155.294189,607.316589 
	C145.467468,607.166565 135.633682,607.414429 125.809410,607.198547 
	C121.684723,607.107910 119.859055,608.531372 120.375656,612.677002 
	C120.416542,613.005066 120.382141,613.342712 120.380356,613.675903 
	C120.336349,621.904053 120.336296,621.904419 128.381851,621.897827 
	C136.045166,621.891541 143.710876,621.996338 151.370819,621.832092 
	C155.388977,621.745911 157.043503,622.938782 156.643311,627.350891 
	C155.838608,636.223328 156.067566,636.244507 146.988205,636.247131 
	C139.658066,636.249268 132.325089,636.371033 124.999054,636.198486 
	C121.544289,636.117126 119.982582,637.350769 120.403648,640.837463 
	C120.423447,641.001343 120.397919,641.170288 120.399872,641.336792 
	C120.574493,656.190552 118.235336,653.635620 133.017639,653.908936 
z"/>
<path fill="#000000" opacity="1.000000" stroke="none" 
	d="
M814.239746,611.359131 
	C820.008728,610.936340 824.585022,613.222229 829.369995,616.400696 
	C830.391113,610.063171 829.986023,604.436584 829.840088,598.865479 
	C829.724365,594.446594 831.037415,592.613831 835.780518,592.697510 
	C845.942444,592.876648 845.915222,592.652893 845.905457,602.652527 
	C845.885803,622.795837 845.847351,642.939514 845.956665,663.082214 
	C845.976868,666.814148 844.926819,668.719543 840.850586,668.394287 
	C837.734070,668.145630 834.581909,668.344849 832.086609,668.344849 
	C830.323547,666.668518 830.994141,664.939697 830.209167,663.411682 
	C823.165588,670.594360 815.034119,672.330688 806.233215,668.658325 
	C797.304199,664.932678 793.207214,657.408630 791.563049,648.107910 
	C790.398438,641.520081 791.235596,635.169800 792.839783,628.894226 
	C795.590698,618.132751 802.752808,612.336243 814.239746,611.359131 
M813.768677,625.871887 
	C807.406616,630.457336 805.023315,640.168701 808.116333,648.903381 
	C810.148315,654.641724 813.169434,656.885193 818.772461,656.816528 
	C824.175537,656.750305 827.581543,654.220215 829.357727,648.677368 
	C830.692810,644.510742 831.114319,640.308228 830.008667,635.916443 
	C827.755920,626.967651 823.654480,624.116455 813.768677,625.871887 
z"/>
<path fill="#000000" opacity="1.000000" stroke="none" 
	d="
M556.485107,593.575867 
	C557.003052,595.375977 557.320618,596.852051 557.322815,598.328613 
	C557.355103,619.811584 557.237427,641.295654 557.434448,662.776917 
	C557.474854,667.175903 556.112732,669.070618 551.746643,668.335693 
	C548.066956,667.716309 543.149597,670.592651 541.320374,664.386230 
	C533.781372,671.016663 525.381287,672.511353 516.699585,668.036377 
	C507.476776,663.282471 503.341003,654.961426 502.800171,644.759033 
	C502.443634,638.033936 502.992401,631.425110 505.783691,625.195984 
	C511.875183,611.601746 526.395081,607.246094 539.056519,615.153870 
	C539.593506,615.489319 540.184021,615.738892 541.261292,616.290283 
	C542.306519,610.379944 541.640076,604.777161 541.769836,599.226868 
	C541.918518,592.868286 541.928711,592.735779 548.200806,592.782043 
	C550.848694,592.801636 553.534302,592.410583 556.485107,593.575867 
M528.867310,656.753113 
	C533.115845,657.164795 536.731323,656.165405 539.264771,652.389465 
	C543.274048,646.413757 543.457458,636.166321 539.591492,630.116089 
	C537.094788,626.208679 533.494812,624.762695 528.961548,625.106934 
	C524.827759,625.420837 522.206909,627.703613 520.712158,631.332886 
	C518.137634,637.583740 518.264954,643.961914 520.524231,650.247864 
	C521.770386,653.714966 524.171570,656.152832 528.867310,656.753113 
z"/>
<path fill="#000000" opacity="1.000000" stroke="none" 
	d="
M436.348389,637.000183 
	C436.338593,646.326599 436.248169,655.154114 436.361572,663.978943 
	C436.402405,667.157471 435.273499,668.630371 432.009155,668.369324 
	C430.354797,668.237000 428.676758,668.287109 427.015778,668.374695 
	C423.867584,668.540710 420.975891,668.342102 420.514923,664.144104 
	C403.095398,678.929382 383.752777,665.077881 382.004272,647.239868 
	C381.230469,639.345703 381.630524,631.545715 385.220367,624.293396 
	C391.571716,611.462219 405.410767,607.501892 417.655609,614.863403 
	C418.333282,615.270813 419.068909,615.581787 420.736420,616.419128 
	C420.736420,610.000854 420.926300,604.260559 420.673645,598.539734 
	C420.486359,594.299072 421.835388,592.571106 426.338287,592.692383 
	C437.793823,593.001099 436.269440,591.839478 436.334686,602.526733 
	C436.403839,613.850830 436.349030,625.175659 436.348389,637.000183 
M414.771881,626.437805 
	C406.064056,623.120422 400.568939,626.094177 398.361816,635.004395 
	C396.978363,640.589417 397.521545,645.918274 399.841187,651.030640 
	C403.122955,658.263367 413.238831,659.141052 417.987823,652.731873 
	C423.633484,645.112549 422.465118,633.294312 414.771881,626.437805 
z"/>
<path fill="#000000" opacity="1.000000" stroke="none" 
	d="
M678.176880,616.069397 
	C689.792725,609.061279 701.375854,610.065979 712.777893,615.278442 
	C717.829712,617.587830 719.180359,622.715637 719.299622,627.919739 
	C719.455933,634.740479 719.236450,641.569641 719.379578,648.390930 
	C719.512817,654.737915 717.993713,661.322388 722.248108,667.023132 
	C715.177185,669.845398 706.920471,668.734924 703.476440,664.463501 
	C698.314575,667.538269 693.157715,670.749390 686.565796,670.373413 
	C677.653564,669.865173 671.343445,664.815308 669.831299,656.184082 
	C668.319397,647.554077 672.899963,639.816345 681.176453,636.860840 
	C686.390930,634.998779 691.916321,634.790466 697.265259,633.656677 
	C700.211304,633.032104 703.746094,632.583069 703.540771,628.624512 
	C703.320496,624.378601 699.715881,624.338562 696.450684,624.126343 
	C692.123596,623.845032 688.678772,624.704773 686.685791,629.198914 
	C685.050354,632.887024 681.383850,631.124817 678.637024,631.203613 
	C671.226013,631.416077 670.529724,630.247620 673.080017,623.182678 
	C674.065186,620.453735 675.729858,618.206543 678.176880,616.069397 
M699.718689,656.291992 
	C703.235474,653.797424 703.896912,650.145935 703.800476,646.193237 
	C703.758423,644.467712 703.105652,643.119019 701.139099,643.542419 
	C696.957947,644.442627 692.584656,644.707947 688.720459,646.753540 
	C685.642212,648.383179 684.792358,651.223022 685.589172,654.375000 
	C686.321106,657.270874 688.571838,658.531982 691.538086,658.689636 
	C694.293030,658.835938 696.762817,658.099548 699.718689,656.291992 
z"/>
<path fill="#000000" opacity="1.000000" stroke="none" 
	d="
M492.156250,620.969788 
	C496.749512,627.206665 497.410034,634.160706 497.797852,641.183533 
	C497.984833,644.569763 496.020905,645.351929 493.048706,645.323914 
	C483.719238,645.235718 474.388245,645.259766 465.058167,645.302002 
	C460.054962,645.324646 459.186310,646.795532 461.320648,651.371155 
	C464.224243,657.595764 473.165527,660.340088 477.653564,655.473938 
	C483.397156,649.246521 489.844910,652.566406 496.130707,651.736572 
	C495.641937,660.377808 487.706024,668.352966 477.685272,669.973572 
	C470.731262,671.098206 463.793488,670.614685 457.311981,667.020569 
	C448.911255,662.362183 444.864807,655.211304 444.716919,645.829285 
	C444.641205,641.025330 444.138977,636.182739 445.215393,631.394531 
	C447.453491,621.438538 453.114777,614.261047 463.163483,612.003418 
	C474.094604,609.547546 484.411377,610.960510 492.156250,620.969788 
M476.585907,625.700439 
	C467.668854,622.192627 461.385986,625.561096 461.087036,634.607727 
	C466.681702,634.607727 472.274506,634.643188 477.866577,634.593201 
	C480.782440,634.567139 481.053040,632.719604 480.360718,630.489685 
	C479.809784,628.715149 478.793945,627.202637 476.585907,625.700439 
z"/>
<path fill="#000000" opacity="1.000000" stroke="none" 
	d="
M264.114166,622.284912 
	C271.338898,611.096863 285.508392,608.634216 297.295593,613.060120 
	C307.246582,616.796692 313.586914,628.178894 313.135681,640.700989 
	C313.010162,644.184143 311.606201,645.354919 308.274780,645.316528 
	C298.784821,645.206970 289.292450,645.242554 279.801575,645.303955 
	C275.272308,645.333191 274.534119,646.578613 276.318970,650.756897 
	C279.111145,657.293335 287.348633,659.744751 293.048615,655.735596 
	C299.298981,651.339172 303.508759,650.559204 311.801849,652.470703 
	C310.864380,658.906677 306.771210,663.120667 301.750366,666.424927 
	C288.552338,675.110596 261.491577,670.847534 259.753754,645.803650 
	C259.196198,637.768799 259.622223,629.806519 264.114166,622.284912 
M295.038239,634.401489 
	C296.145599,633.851318 296.148224,632.924805 295.984222,631.867676 
	C295.222656,626.959656 290.594727,623.759949 284.863007,624.213745 
	C279.618988,624.628906 276.304688,628.578674 276.488647,634.568420 
	C282.415436,634.568420 288.360260,634.568420 295.038239,634.401489 
z"/>
<path fill="#000000" opacity="1.000000" stroke="none" 
	d="
M880.405151,632.531128 
	C886.071716,634.080872 891.487366,635.017395 896.497925,637.410889 
	C902.322205,640.193115 905.504456,644.749939 905.728394,651.105164 
	C905.954590,657.523987 903.577332,663.092957 897.859253,666.250366 
	C886.570312,672.484070 874.889526,672.067261 863.434448,666.646973 
	C858.466919,664.296448 855.971191,659.665649 854.843201,654.405518 
	C854.261719,651.694275 855.118469,649.797607 858.358032,649.838562 
	C861.019958,649.872314 863.683044,649.848694 866.345276,649.820312 
	C868.379150,649.798706 869.573730,650.639038 870.577515,652.558899 
	C873.595215,658.330566 882.344727,660.432922 887.759216,656.920898 
	C890.854492,654.913269 890.591797,651.617554 886.876404,650.117310 
	C883.511230,648.758423 879.862671,648.108215 876.351807,647.100952 
	C873.639282,646.322754 870.891418,645.622559 868.255066,644.632568 
	C858.454834,640.952637 856.009094,637.418518 856.581787,628.094543 
	C857.053284,620.420105 862.666016,613.978882 870.671753,611.956421 
	C877.970154,610.112610 885.167969,610.598450 892.254333,613.011719 
	C898.652466,615.190552 902.425964,619.654907 903.691528,626.287476 
	C903.908936,627.426941 904.409790,628.554688 903.429077,629.557312 
	C901.689331,631.336060 890.002258,630.170959 888.594788,628.093872 
	C885.511169,623.542786 880.287048,621.822449 875.165344,623.721741 
	C873.391479,624.379578 871.658325,625.354797 871.595459,627.450867 
	C871.537781,629.374695 873.119019,630.271606 874.779785,630.817078 
	C876.514587,631.386902 878.268372,631.898682 880.405151,632.531128 
z"/>
<path fill="#000000" opacity="1.000000" stroke="none" 
	d="
M743.578125,612.677673 
	C746.920776,613.121521 745.869812,615.793030 746.863342,618.095032 
	C753.116943,610.871094 761.049438,610.263306 769.299622,612.129761 
	C777.549561,613.996033 781.885132,619.469238 782.192871,628.880310 
	C782.579102,640.693726 782.257812,652.529114 782.348511,664.354187 
	C782.372009,667.418518 781.000427,668.435974 778.103882,668.382263 
	C764.366455,668.127136 766.895874,669.756287 766.684509,657.554871 
	C766.554688,650.061768 766.714417,642.564087 766.640259,635.069458 
	C766.568726,627.841553 763.550110,624.247986 757.743530,624.247070 
	C751.426514,624.246094 747.466675,628.148193 747.295898,635.107239 
	C747.075195,644.096619 746.986633,653.099670 747.237122,662.085815 
	C747.367188,666.751099 746.012878,668.669556 741.047119,668.445557 
	C730.424866,667.966187 731.020447,669.834656 731.027161,658.516235 
	C731.034790,645.690857 731.029053,632.865479 731.059753,620.040161 
	C731.077515,612.643188 731.104736,612.640869 738.643616,612.614197 
	C740.142517,612.608887 741.641541,612.629211 743.578125,612.677673 
z"/>
<path fill="#000000" opacity="1.000000" stroke="none" 
	d="
M365.961212,668.350952 
	C364.646454,668.348389 363.798615,668.243042 362.983307,668.361511 
	C358.204041,669.055786 356.562714,667.106689 356.722504,662.259705 
	C357.035248,652.776611 356.868073,643.273926 356.740173,633.781494 
	C356.659851,627.819641 354.249084,624.940979 349.276276,624.316772 
	C343.970367,623.650879 339.792755,626.351013 338.187653,631.509277 
	C336.513611,636.888916 337.353638,642.427490 337.226044,647.898621 
	C337.097931,653.392334 337.150024,658.890686 337.154602,664.386963 
	C337.156769,666.996887 336.116516,668.376892 333.295593,668.362122 
	C319.058838,668.287659 321.858032,669.520508 321.711517,657.714478 
	C321.546143,644.391541 321.786102,631.063293 321.593689,617.741089 
	C321.536987,613.814941 322.847870,612.185791 326.760345,612.600220 
	C328.241974,612.757141 329.755676,612.617798 331.254639,612.603760 
	C334.545471,612.572937 338.084961,612.187317 336.854584,618.635986 
	C343.495636,610.980408 350.885101,610.680908 358.497955,611.784546 
	C366.681488,612.970825 372.074982,618.810120 372.251465,627.091064 
	C372.514008,639.410950 372.190216,651.742737 372.392303,664.064880 
	C372.470947,668.860535 369.474884,668.392944 365.961212,668.350952 
z"/>
<path fill="#000000" opacity="1.000000" stroke="none" 
	d="
M206.025467,644.119934 
	C211.016373,652.085388 216.736572,659.194214 221.345856,668.251160 
	C215.144730,668.251160 209.890457,668.300354 204.637955,668.225708 
	C202.679596,668.197937 201.908646,666.497742 201.058243,665.092834 
	C198.835663,661.421082 196.674332,657.712219 193.888428,653.003845 
	C191.363586,657.228394 189.118164,660.626587 187.250565,664.221008 
	C185.685959,667.232361 183.647705,668.651123 180.139786,668.419495 
	C176.031219,668.148193 171.891022,668.356079 167.998810,668.356079 
	C167.003128,665.787659 168.453583,664.607605 169.338608,663.288269 
	C173.417969,657.206787 177.368683,651.026367 181.726593,645.149170 
	C184.267853,641.721924 184.573441,639.050171 181.868591,635.472534 
	C177.761154,630.039795 174.212677,624.182129 170.478104,618.471375 
	C169.508469,616.988647 168.108765,615.646667 168.374115,613.063232 
	C173.517426,612.144287 178.773895,612.662292 183.993652,612.739807 
	C185.936676,612.768616 186.691040,614.488037 187.540497,615.908752 
	C189.664932,619.461792 191.762314,623.030945 194.137726,627.045227 
	C197.313889,623.722839 198.918472,619.893799 200.905441,616.399536 
	C202.523743,613.553650 204.493011,612.312805 207.705612,612.578369 
	C211.786179,612.915527 215.943649,612.060547 220.276352,613.198303 
	C219.413971,617.108154 216.721573,619.716187 214.822296,622.723694 
	C211.980103,627.224304 209.044525,631.685852 205.838333,635.929565 
	C203.704865,638.753296 203.359283,641.189392 206.025467,644.119934 
z"/>
<path fill="#000000" opacity="1.000000" stroke="none" 
	d="
M247.214355,604.080688 
	C247.217926,605.710388 247.299133,606.882507 247.207199,608.040894 
	C246.950287,611.278137 248.009796,613.154724 251.644714,612.938110 
	C256.096497,612.672974 256.088562,615.788940 256.162598,618.980347 
	C256.240265,622.328430 255.408279,624.587769 251.459442,624.219666 
	C248.139191,623.910034 247.119675,625.651550 247.161499,628.734924 
	C247.267670,636.561523 247.311340,644.392456 247.162750,652.217468 
	C247.095703,655.748230 248.428009,657.632751 251.998657,657.620789 
	C257.237274,657.603210 255.843460,661.510132 256.062927,664.420044 
	C256.304291,667.619873 255.135223,669.549927 251.526367,669.310242 
	C247.401474,669.036255 243.249344,669.794800 239.143097,668.457703 
	C234.244019,666.862427 231.652176,663.783875 231.646988,658.579468 
	C231.637512,649.086182 231.569397,639.592834 231.587509,630.099609 
	C231.594040,626.676514 231.433716,623.841614 226.651947,624.045837 
	C223.141525,624.195862 223.690430,621.075745 223.757141,618.849915 
	C223.825653,616.564453 222.688782,613.129456 226.557510,613.096924 
	C231.459976,613.055786 231.672348,610.260376 231.641708,606.552307 
	C231.563126,597.036987 231.662491,597.275818 240.757904,596.991150 
	C245.820526,596.832703 247.929047,598.607849 247.214355,604.080688 
z"/>
<path fill="#000000" opacity="1.000000" stroke="none" 
	d="
M397.984161,209.688202 
	C397.127167,204.748520 401.014282,203.774597 403.726166,202.341614 
	C406.797302,200.718796 407.611176,204.147415 408.791748,205.789963 
	C413.156433,211.862381 417.189423,218.172058 421.478973,224.300262 
	C422.986938,226.454620 423.293152,228.008087 420.778473,229.624435 
	C418.300934,231.216904 416.928680,230.323608 415.510071,228.162064 
	C412.778625,224.000015 409.861816,219.959595 406.616425,216.009186 
	C408.486816,220.914047 410.242035,225.867310 412.274261,230.704193 
	C413.357483,233.282425 412.984070,234.906326 410.627167,236.574158 
	C408.053680,238.395233 406.461273,237.423645 404.611237,235.599457 
	C401.662628,232.692062 398.562561,229.938293 394.880585,227.569717 
	C396.839935,230.614349 398.781006,233.670914 400.762756,236.700897 
	C403.999451,241.649567 403.976166,241.750031 397.636627,244.687927 
	C392.315643,236.874542 386.917908,228.953094 381.525879,221.027756 
	C379.931549,218.684341 381.359467,217.291977 383.194580,216.188843 
	C385.427643,214.846436 387.315613,211.851410 390.503937,214.802612 
	C394.878387,218.851837 399.400757,222.741241 405.029785,227.737717 
	C402.366241,220.957794 400.228302,215.515793 397.984161,209.688202 
z"/>
<path fill="#000000" opacity="1.000000" stroke="none" 
	d="
M455.036621,722.849792 
	C448.143066,729.919800 439.775513,726.747986 432.030029,726.937744 
	C430.272583,726.980774 430.030579,724.901123 430.019470,723.387878 
	C429.959534,715.224731 429.979492,707.060913 429.930878,698.897644 
	C429.913483,695.980835 431.235748,694.667664 434.191559,694.734070 
	C438.521088,694.831482 442.864258,694.573181 447.184052,694.800415 
	C454.029144,695.160461 457.483032,700.632690 455.001892,707.017700 
	C454.394226,708.581543 453.503937,709.780701 455.002197,711.495728 
	C458.056946,714.992493 457.653748,718.795593 455.036621,722.849792 
M448.503998,718.030945 
	C448.096283,713.846130 445.994629,712.727783 440.488129,713.236267 
	C437.771454,713.487122 437.330811,714.941284 437.342041,717.182312 
	C437.352631,719.309509 437.958832,720.711792 440.378113,720.654602 
	C443.122375,720.589783 446.037323,721.232849 448.503998,718.030945 
M445.511719,701.450378 
	C445.017365,701.424561 444.509949,701.313843 444.030945,701.387634 
	C441.880920,701.718811 439.268280,700.299866 437.717743,702.876770 
	C437.209595,703.721313 437.108551,704.952026 437.813141,705.698120 
	C439.809296,707.811951 442.436432,706.671936 444.816345,706.799683 
	C444.977081,706.808289 445.150848,706.773926 445.302765,706.717224 
	C448.474121,705.534790 449.486725,703.956177 445.511719,701.450378 
z"/>
<path fill="#000000" opacity="1.000000" stroke="none" 
	d="
M545.425903,695.129517 
	C550.838806,694.877869 555.820435,694.661743 560.794861,694.772766 
	C567.471130,694.921692 572.504333,700.993042 569.880310,707.000366 
	C567.303162,712.900574 569.917297,718.032715 570.002808,723.499146 
	C570.017944,724.463379 570.223938,725.424561 570.337524,726.352783 
	C564.158142,728.238464 562.137146,727.239746 561.758545,722.266113 
	C561.171143,714.549927 559.913879,713.655212 551.906433,715.383240 
	C550.765564,718.195679 551.530334,721.218506 551.300964,724.151917 
	C551.142029,726.184814 550.224243,727.184448 548.194397,727.197571 
	C546.326965,727.209717 544.058228,727.317444 544.007568,724.835754 
	C543.811584,715.233337 543.159729,705.616333 544.328552,696.028931 
	C544.360596,695.766479 544.762207,695.549133 545.425903,695.129517 
M556.704529,708.119385 
	C557.366028,708.072693 558.035278,708.074280 558.687683,707.970520 
	C560.824280,707.630554 562.726807,706.800293 562.391663,704.245850 
	C562.110840,702.105774 560.365540,701.395020 558.336426,701.394409 
	C557.507263,701.394165 556.676086,701.407532 555.849243,701.358276 
	C553.280334,701.205200 551.322571,701.472656 551.289062,704.916382 
	C551.252808,708.629700 553.499329,708.343384 556.704529,708.119385 
z"/>
<path fill="#000000" opacity="1.000000" stroke="none" 
	d="
M585.078979,205.131821 
	C588.904114,198.386597 588.750061,198.706802 595.388367,201.901077 
	C599.113831,203.693695 603.261230,204.346512 605.017639,208.878952 
	C605.493469,210.106674 607.156250,209.018188 608.268372,209.104416 
	C614.790161,209.609970 618.053589,214.862503 615.284485,220.766800 
	C613.379028,224.829681 611.038513,228.686523 608.972534,232.676956 
	C607.817688,234.907669 606.418091,235.375763 604.156494,234.097626 
	C601.778564,232.753769 601.193176,231.309341 602.737976,228.899551 
	C604.351868,226.382019 605.731384,223.709824 607.137573,221.064972 
	C608.198364,219.069794 610.159302,216.727448 607.254822,214.992706 
	C604.111755,213.115463 602.883911,216.080719 601.606445,218.140640 
	C600.028320,220.685501 598.587158,223.317673 597.148560,225.945938 
	C596.056152,227.941803 594.846313,229.166672 592.418884,227.675156 
	C590.217346,226.322403 589.381470,224.916168 590.930542,222.422119 
	C592.771606,219.457916 594.308472,216.303131 595.941956,213.212326 
	C596.858215,211.478592 597.372253,209.606064 595.365479,208.356384 
	C593.117737,206.956604 591.554810,208.325943 590.468994,210.214890 
	C588.727905,213.243866 587.035400,216.305984 585.462280,219.424713 
	C584.187622,221.951660 582.540161,222.214798 580.202942,220.878113 
	C577.911804,219.567734 577.868225,218.106995 579.151733,215.966705 
	C581.204590,212.543610 582.994446,208.962799 585.078979,205.131821 
z"/>
<path fill="#000000" opacity="1.000000" stroke="none" 
	d="
M665.078857,271.505371 
	C660.778748,273.064484 657.784058,276.048737 654.368225,278.388092 
	C652.377563,279.751404 650.700928,280.526001 648.932068,277.965027 
	C647.245911,275.523895 648.198364,273.993256 650.198120,272.557129 
	C653.033875,270.520599 655.906677,268.531830 658.677124,266.409698 
	C660.210083,265.235443 661.382446,263.739014 659.851746,261.756622 
	C658.405823,259.883972 656.644531,260.292572 654.992981,261.416779 
	C651.970703,263.473907 648.986023,265.588654 646.032471,267.743469 
	C644.059753,269.182617 642.569885,269.157318 641.066162,266.956146 
	C639.631226,264.855713 639.817444,263.387268 641.880249,261.947601 
	C646.516052,258.712311 651.142761,255.461166 655.695740,252.111206 
	C658.111816,250.333511 660.091370,251.213455 660.928406,253.441406 
	C662.750366,258.291290 669.209473,260.320221 668.722107,266.597076 
	C668.673340,267.224884 670.766357,268.011078 671.856812,268.736603 
	C677.009399,272.164917 677.481812,277.708191 672.707275,281.595367 
	C669.103516,284.529297 665.171082,287.056732 661.431519,289.827911 
	C659.834534,291.011322 658.477478,291.257782 657.235046,289.404785 
	C656.068481,287.664825 654.960876,285.936371 657.261902,284.238647 
	C660.339050,281.968262 663.517029,279.825165 666.494629,277.431854 
	C669.575928,274.955139 669.559631,272.776154 665.078857,271.505371 
z"/>
<path fill="#000000" opacity="1.000000" stroke="none" 
	d="
M495.562958,703.332764 
	C495.214966,706.344910 496.899292,706.711426 498.942688,706.712708 
	C501.604706,706.714417 504.266693,706.754456 506.928711,706.780334 
	C509.133209,706.801758 510.293121,707.772705 510.268311,710.122131 
	C510.242737,712.541565 508.903809,713.297302 506.769226,713.294373 
	C504.606171,713.291382 502.442352,713.346375 500.280273,713.304138 
	C497.643585,713.252686 495.244354,713.170349 495.311157,717.012451 
	C495.378571,720.888245 497.986450,720.623413 500.488098,720.626831 
	C503.314606,720.630676 506.141022,720.476013 508.968079,720.421631 
	C511.279785,720.377197 513.321228,720.549744 513.288147,723.760681 
	C513.257080,726.777588 511.516266,727.314758 509.057739,727.296204 
	C503.400574,727.253418 497.742035,727.209045 492.085876,727.290833 
	C489.156830,727.333130 487.820923,726.106873 487.832977,723.151489 
	C487.866302,714.998474 487.838501,706.844849 487.774994,698.692017 
	C487.753967,695.990906 488.941711,694.719482 491.663666,694.742859 
	C497.320587,694.791443 502.978058,694.768860 508.635315,694.779297 
	C510.729614,694.783142 512.138062,695.478943 512.221313,697.905273 
	C512.313660,700.598083 510.854919,701.375793 508.493988,701.350098 
	C505.665741,701.319336 502.835968,701.316956 500.008423,701.376282 
	C498.401123,701.410034 496.579956,700.999207 495.562958,703.332764 
z"/>
<path fill="#000000" opacity="1.000000" stroke="none" 
	d="
M629.475830,243.527802 
	C629.059998,245.490158 629.662170,246.878891 630.600220,248.069580 
	C632.390076,250.341553 634.706543,253.001373 637.590942,250.977814 
	C640.463867,248.962234 637.604675,246.570663 636.469543,244.525665 
	C635.259583,242.345947 633.757629,240.314041 632.694092,238.070175 
	C630.387390,233.203598 632.700500,227.645340 637.641724,225.762390 
	C642.215271,224.019547 648.239441,226.383133 651.968567,231.383530 
	C655.968811,236.747650 656.000061,240.159027 651.895386,245.461945 
	C649.054443,244.155396 646.937195,242.515945 647.614319,238.803329 
	C647.972839,236.837616 647.070374,235.187088 645.645935,233.917374 
	C644.106812,232.545441 642.243286,231.319458 640.297058,232.852478 
	C638.328552,234.403015 639.731689,236.185318 640.648926,237.731293 
	C642.006775,240.020096 643.548950,242.201736 644.860779,244.515106 
	C646.811035,247.954269 647.129395,251.459457 644.646973,254.817123 
	C642.046387,258.334656 638.361023,259.023102 634.370056,258.296204 
	C627.659241,257.073914 621.504395,248.849930 622.496216,242.541550 
	C622.821960,240.469849 622.984375,237.494614 625.732910,237.846970 
	C628.024841,238.140778 630.366394,239.903275 629.475830,243.527802 
z"/>
<path fill="#000000" opacity="1.000000" stroke="none" 
	d="
M639.271484,726.545776 
	C638.394531,722.072449 640.879211,718.648010 642.015076,714.915100 
	C643.752563,709.204956 646.075745,703.674744 648.081970,698.043823 
	C648.925659,695.676086 650.469482,694.603088 652.982178,694.741882 
	C655.118408,694.859985 657.454590,694.424683 658.405457,697.139648 
	C661.640259,706.376038 664.871460,715.613708 668.062378,724.865295 
	C668.203369,725.274109 667.934204,725.824463 667.822327,726.518005 
	C664.274353,727.700073 661.360962,728.081604 659.392822,723.619019 
	C657.785950,719.975403 648.859985,719.932068 647.178894,723.585999 
	C645.433044,727.380493 642.945679,727.785950 639.271484,726.545776 
M654.457275,713.786316 
	C657.206543,710.838928 653.923706,709.057800 653.346008,705.561218 
	C652.346985,708.244507 651.782410,709.764038 651.215576,711.282715 
	C650.179443,714.058960 651.535767,714.494202 654.457275,713.786316 
z"/>
<path fill="#000000" opacity="1.000000" stroke="none" 
	d="
M536.064575,178.164978 
	C537.386292,174.908157 539.502747,175.546921 541.575928,176.451050 
	C543.581055,177.325562 543.303955,178.966156 542.848145,180.693253 
	C542.433716,182.263596 542.209595,183.884125 541.886902,185.558838 
	C552.351807,183.941055 556.422546,188.130951 554.502625,198.242767 
	C553.976135,201.015640 553.517456,203.801376 552.994629,206.574997 
	C552.498779,209.206131 551.215637,210.762268 548.209961,210.253815 
	C545.021545,209.714478 545.386475,207.495605 545.763123,205.313080 
	C546.185242,202.866684 546.875488,200.462662 547.221497,198.008118 
	C547.570190,195.534973 549.072449,192.301376 545.285889,191.347946 
	C541.590210,190.417374 540.419617,193.232132 539.835754,196.261719 
	C539.300781,199.037491 538.666809,201.797791 538.241455,204.590027 
	C537.860962,207.088104 536.600830,208.071548 534.122925,207.563095 
	C531.551636,207.035446 530.602905,205.878906 531.232666,202.994247 
	C533.000488,194.895782 534.407776,186.718628 536.064575,178.164978 
z"/>
<path fill="#000000" opacity="1.000000" stroke="none" 
	d="
M447.350342,189.783737 
	C448.257690,192.487152 449.078583,194.821457 450.114166,197.766190 
	C453.246674,193.403152 453.921204,186.773102 461.292816,187.981918 
	C462.193542,192.222336 455.868164,195.550903 459.623932,200.237106 
	C462.306885,203.584671 466.381073,205.579529 468.570129,209.305267 
	C461.992188,215.889511 458.756287,208.396210 454.507874,205.909103 
	C452.421387,207.772644 453.529449,209.511353 453.999786,211.165802 
	C454.699158,213.625931 453.597778,214.860733 451.371033,215.661835 
	C448.734589,216.610306 447.706787,215.209442 447.034058,213.052322 
	C444.810516,205.922302 442.518311,198.812698 440.392731,191.653641 
	C439.652069,189.159058 437.630310,186.191864 442.018555,184.744354 
	C446.568024,183.243668 446.180511,187.116714 447.350342,189.783737 
z"/>
<path fill="#000000" opacity="1.000000" stroke="none" 
	d="
M427.516113,224.846985 
	C420.051514,219.705032 420.176117,214.330841 427.459320,209.573700 
	C428.925262,208.616196 430.848694,208.068405 431.282745,205.736176 
	C428.867767,203.874527 427.296417,205.153702 426.266846,207.262863 
	C425.504089,208.825409 424.704590,210.131287 423.046326,210.836166 
	C420.022064,212.121704 418.548279,211.198181 418.754211,207.889374 
	C419.030823,203.444870 424.022278,199.017548 429.903198,197.950424 
	C434.403473,197.133835 436.530090,199.903427 438.336334,203.380447 
	C440.684906,207.901489 442.032593,212.924973 446.599152,218.216721 
	C438.491547,217.642807 435.176208,225.639587 427.516113,224.846985 
M432.876678,212.219345 
	C432.118103,212.847397 431.306183,213.422134 430.613098,214.115646 
	C429.503235,215.226288 428.548950,216.608536 430.041290,217.930099 
	C431.725098,219.421173 433.186829,218.198135 434.182404,216.836746 
	C435.446381,215.108322 435.992554,213.257553 432.876678,212.219345 
z"/>
<path fill="#000000" opacity="1.000000" stroke="none" 
	d="
M569.213745,210.313751 
	C573.391785,209.615204 573.391785,209.615204 576.875183,212.318146 
	C575.492676,215.651794 572.572021,216.615143 569.397888,216.743271 
	C565.013306,216.920273 561.187500,215.510635 558.684387,211.615860 
	C555.635254,206.871536 556.933167,198.553192 561.352966,194.197830 
	C565.090454,190.514832 570.288391,190.171829 575.525879,193.262589 
	C580.118164,195.972595 581.880676,202.636734 579.388733,207.316055 
	C578.237610,209.477722 576.652100,209.233780 574.742798,208.786514 
	C571.396606,208.002655 568.446106,205.822388 564.551758,205.803650 
	C564.012817,209.462616 565.490784,210.819901 569.213745,210.313751 
M569.715210,201.404678 
	C570.892822,201.567032 572.071960,202.905533 573.322876,201.341125 
	C573.476196,198.887207 571.867737,197.915771 569.803833,197.484726 
	C568.599487,197.233200 567.303101,197.664917 566.857788,198.793304 
	C566.058899,200.818039 568.097961,200.598633 569.715210,201.404678 
z"/>
<path fill="#000000" opacity="1.000000" stroke="none" 
	d="
M331.396851,292.810333 
	C334.771271,284.686951 340.454742,282.275879 347.322906,285.563354 
	C349.777618,286.738281 350.468384,288.175873 349.274200,290.682922 
	C347.664001,294.063324 345.411041,297.190552 344.625214,301.372864 
	C348.672516,301.635284 350.107819,299.680786 349.665497,296.367432 
	C349.268524,293.393463 350.119659,291.207733 352.414703,289.465363 
	C356.670410,292.116760 357.562012,296.479950 355.043732,301.938446 
	C352.437805,307.586914 347.025269,309.812683 340.877747,307.763916 
	C333.496765,305.304047 330.037415,300.062042 331.396851,292.810333 
M337.482910,296.508728 
	C340.210785,298.037048 340.613708,297.636200 342.094147,291.710938 
	C338.665283,291.120300 337.344727,292.705872 337.482910,296.508728 
z"/>
<path fill="#000000" opacity="1.000000" stroke="none" 
	d="
M469.868225,186.865738 
	C478.869080,181.348541 486.376678,183.557297 489.017365,191.980209 
	C490.198700,195.748352 489.024384,197.745987 485.199585,198.148514 
	C481.936432,198.491928 478.668671,198.714386 475.300720,200.098923 
	C476.954773,203.825684 479.171906,204.271393 481.896851,201.925018 
	C484.164429,199.972458 487.221924,197.103455 489.197968,200.155533 
	C491.141968,203.158081 487.569458,205.799606 484.795990,207.397156 
	C479.940582,210.193893 474.722137,209.809052 471.275574,206.671860 
	C467.314667,203.066483 465.498016,195.938095 467.414825,191.050385 
	C467.953766,189.676147 468.857697,188.445053 469.868225,186.865738 
M474.371216,193.041351 
	C476.818787,195.490189 478.842438,193.397797 481.646667,192.633041 
	C478.792999,189.524872 476.603699,189.101303 474.371216,193.041351 
z"/>
<path fill="#000000" opacity="1.000000" stroke="none" 
	d="
M679.630493,333.585388 
	C673.248230,330.624390 670.288208,324.826691 671.836548,318.900116 
	C673.156006,313.849518 680.380188,309.390656 686.497375,309.851349 
	C692.254333,310.284912 696.466675,314.750641 697.147461,321.141876 
	C697.666687,326.016571 692.223755,332.196259 687.295715,332.615570 
	C685.160400,332.797302 684.754272,331.442566 684.277039,330.060150 
	C683.040405,326.477844 681.894714,322.864166 680.458557,318.488647 
	C677.153198,321.202118 676.565247,323.610413 679.384521,326.119537 
	C680.915955,327.482483 682.402405,328.707825 682.868652,330.759827 
	C683.414001,333.160034 682.583313,334.318573 679.630493,333.585388 
M686.051880,317.983276 
	C686.120239,320.268036 686.614929,322.370819 688.288391,323.964081 
	C690.518005,323.232727 691.006653,321.739105 690.499146,320.001526 
	C689.940979,318.090271 688.680725,316.927948 686.051880,317.983276 
z"/>
<path fill="#000000" opacity="1.000000" stroke="none" 
	d="
M367.526855,261.064636 
	C362.996399,261.753021 360.219360,259.790222 359.143341,256.037262 
	C357.707153,251.028183 360.348206,247.327408 364.155518,244.481842 
	C367.505798,241.977859 371.071411,241.828339 374.343384,243.943832 
	C375.165741,250.918030 365.714722,247.033539 365.564453,253.280624 
	C368.925903,253.149002 370.793182,250.772400 373.123260,249.434601 
	C376.470001,247.513077 379.666718,246.822998 382.651917,249.870178 
	C385.593872,252.873230 385.751801,256.233704 383.765717,259.904541 
	C379.787903,267.256622 373.229553,269.785004 367.878845,265.908569 
	C368.049011,259.170868 377.516663,262.791687 378.430420,256.245636 
	C373.756500,255.661789 371.570374,260.060089 367.526855,261.064636 
z"/>
<path fill="#000000" opacity="1.000000" stroke="none" 
	d="
M520.657715,186.735916 
	C520.473633,191.994827 520.267761,196.822281 520.319580,201.646942 
	C520.356873,205.121841 518.830688,206.439392 515.445801,206.205170 
	C511.992065,205.966202 512.189514,203.858627 512.335754,201.282379 
	C512.656311,195.636047 512.600037,189.969238 512.858826,184.318146 
	C513.000732,181.219910 511.591278,180.131668 508.686951,180.258514 
	C506.169769,180.368469 503.824310,179.988251 504.038544,176.623672 
	C504.241425,173.437820 506.715485,173.708145 508.861145,173.755264 
	C514.843506,173.886612 520.850586,173.278717 526.801636,174.490952 
	C528.815918,174.901260 530.932556,174.865082 530.688843,177.818268 
	C530.451477,180.694275 528.575562,181.493225 526.161316,181.119217 
	C521.951599,180.467056 520.962219,182.919815 520.657715,186.735916 
z"/>
<path fill="#000000" opacity="1.000000" stroke="none" 
	d="
M346.305756,718.363525 
	C349.233521,722.329468 353.148438,720.104309 356.552643,720.609558 
	C358.523743,720.902161 360.716370,720.499023 361.021545,723.354187 
	C361.322754,726.172058 359.885284,727.276306 357.223267,727.260620 
	C352.074036,727.230286 346.923920,727.198303 341.775299,727.259949 
	C338.719727,727.296509 337.741302,725.703674 337.758026,722.894653 
	C337.805573,714.921570 337.813568,706.947205 337.713654,698.974854 
	C337.677032,696.051819 338.775360,694.730042 341.796295,694.745422 
	C344.794830,694.760742 346.014160,696.217224 346.045135,699.003845 
	C346.115265,705.314941 346.170074,711.626221 346.305756,718.363525 
z"/>
<path fill="#000000" opacity="1.000000" stroke="none" 
	d="
M323.463623,320.424194 
	C327.329071,321.650391 330.860229,322.638153 334.309845,323.856628 
	C336.762695,324.722992 338.033966,324.008057 338.763062,321.566071 
	C339.619324,318.698242 340.687988,315.892792 341.699554,313.072815 
	C342.403900,311.109253 343.692810,310.710449 345.650848,311.422913 
	C347.480133,312.088531 348.602997,312.959351 347.914032,315.064362 
	C345.855347,321.354187 344.529205,327.902222 341.307861,334.302460 
	C331.886200,331.225128 322.579163,328.239349 313.315918,325.123505 
	C310.842438,324.291504 311.619232,322.279388 312.125427,320.492462 
	C312.683197,318.523560 313.600250,317.102783 315.997009,317.899902 
	C318.365204,318.687561 320.728821,319.489014 323.463623,320.424194 
z"/>
<path fill="#000000" opacity="1.000000" stroke="none" 
	d="
M342.246613,268.528564 
	C343.873810,269.437134 344.827087,268.774750 346.108673,268.154053 
	C348.236786,267.123352 350.001038,268.175507 350.451172,270.562103 
	C351.415985,275.677795 356.775482,279.157501 362.181488,277.958069 
	C363.731140,277.614197 364.738129,278.476868 365.730621,279.287628 
	C366.845184,280.198120 366.392303,281.332031 365.874878,282.449738 
	C363.733032,287.076202 360.187012,288.248322 355.788086,285.664490 
	C353.786804,284.488983 351.872559,283.165894 349.907684,281.927399 
	C349.066437,281.397156 348.023041,280.311249 347.367432,280.500885 
	C341.930481,282.073395 340.205353,278.455322 338.103302,274.657654 
	C337.309174,273.222839 335.742615,272.425232 336.943542,270.514404 
	C338.140167,268.610474 339.244171,266.624298 342.246613,268.528564 
z"/>
<path fill="#000000" opacity="1.000000" stroke="none" 
	d="
M398.333405,711.000244 
	C398.323822,715.497742 398.281555,719.497253 398.320557,723.496094 
	C398.344086,725.910706 397.435333,727.219849 394.825348,727.247620 
	C392.186432,727.275635 390.733124,726.338867 390.738617,723.512451 
	C390.754883,715.180908 390.736847,706.848999 390.673828,698.517700 
	C390.652252,695.663879 392.146179,694.755981 394.760864,694.783142 
	C397.320862,694.809692 398.332672,696.054138 398.310425,698.504456 
	C398.274139,702.503235 398.322388,706.502747 398.333405,711.000244 
z"/>
<path fill="#000000" opacity="1.000000" stroke="none" 
	d="
M600.752441,718.916382 
	C600.748779,712.108337 600.759216,705.787292 600.739929,699.466370 
	C600.732178,696.932373 601.030579,694.838867 604.381470,694.758362 
	C607.983826,694.671875 608.368896,696.804993 608.346497,699.606995 
	C608.287842,706.925537 608.372192,714.245300 608.306335,721.563721 
	C608.283691,724.082764 609.100525,727.182678 604.786926,727.253113 
	C600.320435,727.326050 600.852539,724.203064 600.766724,721.399475 
	C600.746399,720.734619 600.757874,720.068787 600.752441,718.916382 
z"/>
<path fill="#000000" opacity="1.000000" stroke="none" 
	d="
M686.564087,296.560547 
	C688.409119,295.694427 689.944153,295.038666 691.405212,294.246460 
	C693.975159,292.852905 695.291748,293.875031 696.368164,296.323334 
	C697.452881,298.790527 696.589661,299.981354 694.363770,300.927612 
	C686.862305,304.116638 679.380066,307.352356 671.924438,310.647064 
	C669.684387,311.636932 667.943115,311.996918 666.596924,309.249176 
	C665.042664,306.076874 667.014282,305.099121 669.296204,304.105286 
	C674.940735,301.647003 680.579529,299.175568 686.564087,296.560547 
z"/>
<path fill="#000000" opacity="1.000000" stroke="none" 
	d="
M680.166382,285.128174 
	C685.106262,288.436035 685.178833,290.217499 680.626953,292.695984 
	C675.982056,295.225098 671.198242,297.498230 666.536926,299.998260 
	C664.406250,301.141022 662.957092,301.066925 661.716248,298.715698 
	C660.392578,296.207520 661.091431,294.795166 663.489807,293.601776 
	C668.964600,290.877625 674.368835,288.011871 680.166382,285.128174 
z"/>
<path fill="#000000" opacity="1.000000" stroke="none" 
	d="
M349.067871,256.115692 
	C351.059875,257.873413 352.812439,259.385223 354.537750,260.927490 
	C355.712128,261.977264 356.635315,263.121918 355.479797,264.759613 
	C354.389038,266.305603 353.072754,266.266785 351.622040,265.312164 
	C348.745453,263.419250 345.508362,262.046173 342.880188,259.330078 
	C344.255798,257.003510 344.213257,252.718689 349.067871,256.115692 
z"/>
<path fill="#000000" opacity="1.000000" stroke="none" 
	d="
M690.047668,282.858765 
	C693.001587,287.809753 689.336731,288.253540 686.219666,289.426086 
	C684.984314,287.339020 682.670349,285.518127 684.498352,283.196838 
	C685.619629,281.772980 687.758118,279.878296 690.047668,282.858765 
z"/>
</svg>